<mxfile host="app.diagrams.net" agent="Mozilla/5.0 (Windows NT 10.0; Win64; x64) AppleWebKit/537.36 (KHTML, like Gecko) Chrome/134.0.0.0 Safari/537.36 OPR/119.0.0.0" version="27.1.3">
  <diagram name="PÃ¡gina-1" id="4UfsvtrGQUURYApcNGFi">
    <mxGraphModel dx="1385" dy="764" grid="1" gridSize="10" guides="1" tooltips="1" connect="1" arrows="1" fold="1" page="1" pageScale="1" pageWidth="827" pageHeight="1169" math="0" shadow="0">
      <root>
        <mxCell id="0" />
        <mxCell id="1" parent="0" />
        <mxCell id="Q5F3aWCLFh04xkU88DtE-2" value="ENGINE" style="swimlane;fontStyle=1;align=center;verticalAlign=top;childLayout=stackLayout;horizontal=1;startSize=26;horizontalStack=0;resizeParent=1;resizeParentMax=0;resizeLast=0;collapsible=1;marginBottom=0;whiteSpace=wrap;html=1;" vertex="1" parent="1">
          <mxGeometry x="334" y="30" width="160" height="150" as="geometry" />
        </mxCell>
        <mxCell id="Q5F3aWCLFh04xkU88DtE-3" value="+ Mochila: mochila&lt;div&gt;+ Sala: salaCorrente&lt;/div&gt;&lt;div&gt;+ Bolean: fim&lt;/div&gt;" style="text;strokeColor=none;fillColor=none;align=left;verticalAlign=top;spacingLeft=4;spacingRight=4;overflow=hidden;rotatable=0;points=[[0,0.5],[1,0.5]];portConstraint=eastwest;whiteSpace=wrap;html=1;" vertex="1" parent="Q5F3aWCLFh04xkU88DtE-2">
          <mxGeometry y="26" width="160" height="54" as="geometry" />
        </mxCell>
        <mxCell id="Q5F3aWCLFh04xkU88DtE-4" value="" style="line;strokeWidth=1;fillColor=none;align=left;verticalAlign=middle;spacingTop=-1;spacingLeft=3;spacingRight=3;rotatable=0;labelPosition=right;points=[];portConstraint=eastwest;strokeColor=inherit;" vertex="1" parent="Q5F3aWCLFh04xkU88DtE-2">
          <mxGeometry y="80" width="160" height="8" as="geometry" />
        </mxCell>
        <mxCell id="Q5F3aWCLFh04xkU88DtE-5" value="+ void indicaFimDeJogo()&lt;div&gt;+ void criaCenario()&lt;/div&gt;&lt;div&gt;+ void joga()&lt;/div&gt;" style="text;strokeColor=none;fillColor=none;align=left;verticalAlign=top;spacingLeft=4;spacingRight=4;overflow=hidden;rotatable=0;points=[[0,0.5],[1,0.5]];portConstraint=eastwest;whiteSpace=wrap;html=1;" vertex="1" parent="Q5F3aWCLFh04xkU88DtE-2">
          <mxGeometry y="88" width="160" height="62" as="geometry" />
        </mxCell>
        <mxCell id="Q5F3aWCLFh04xkU88DtE-6" value="SALA" style="swimlane;fontStyle=1;align=center;verticalAlign=top;childLayout=stackLayout;horizontal=1;startSize=26;horizontalStack=0;resizeParent=1;resizeParentMax=0;resizeLast=0;collapsible=1;marginBottom=0;whiteSpace=wrap;html=1;" vertex="1" parent="1">
          <mxGeometry x="334" y="220" width="160" height="180" as="geometry" />
        </mxCell>
        <mxCell id="Q5F3aWCLFh04xkU88DtE-7" value="+ String: nome&lt;div&gt;+ Map: objetos&lt;/div&gt;&lt;div&gt;+ Map: ferramentas&lt;/div&gt;&lt;div&gt;+ Map: portas&lt;/div&gt;&lt;div&gt;+ Engine: engine&lt;/div&gt;" style="text;strokeColor=none;fillColor=none;align=left;verticalAlign=top;spacingLeft=4;spacingRight=4;overflow=hidden;rotatable=0;points=[[0,0.5],[1,0.5]];portConstraint=eastwest;whiteSpace=wrap;html=1;" vertex="1" parent="Q5F3aWCLFh04xkU88DtE-6">
          <mxGeometry y="26" width="160" height="84" as="geometry" />
        </mxCell>
        <mxCell id="Q5F3aWCLFh04xkU88DtE-8" value="" style="line;strokeWidth=1;fillColor=none;align=left;verticalAlign=middle;spacingTop=-1;spacingLeft=3;spacingRight=3;rotatable=0;labelPosition=right;points=[];portConstraint=eastwest;strokeColor=inherit;" vertex="1" parent="Q5F3aWCLFh04xkU88DtE-6">
          <mxGeometry y="110" width="160" height="8" as="geometry" />
        </mxCell>
        <mxCell id="Q5F3aWCLFh04xkU88DtE-9" value="+ void pega()&lt;div&gt;+ void sai()&lt;/div&gt;&lt;div&gt;+ void usar()&lt;br&gt;&lt;div&gt;&lt;br&gt;&lt;/div&gt;&lt;/div&gt;" style="text;strokeColor=none;fillColor=none;align=left;verticalAlign=top;spacingLeft=4;spacingRight=4;overflow=hidden;rotatable=0;points=[[0,0.5],[1,0.5]];portConstraint=eastwest;whiteSpace=wrap;html=1;" vertex="1" parent="Q5F3aWCLFh04xkU88DtE-6">
          <mxGeometry y="118" width="160" height="62" as="geometry" />
        </mxCell>
        <mxCell id="Q5F3aWCLFh04xkU88DtE-11" value="" style="endArrow=classic;html=1;rounded=0;exitX=0.494;exitY=1;exitDx=0;exitDy=0;exitPerimeter=0;entryX=0.5;entryY=0;entryDx=0;entryDy=0;" edge="1" parent="1" source="Q5F3aWCLFh04xkU88DtE-5" target="Q5F3aWCLFh04xkU88DtE-6">
          <mxGeometry width="50" height="50" relative="1" as="geometry">
            <mxPoint x="460" y="370" as="sourcePoint" />
            <mxPoint x="510" y="320" as="targetPoint" />
          </mxGeometry>
        </mxCell>
        <mxCell id="Q5F3aWCLFh04xkU88DtE-16" value="MOCHILA" style="swimlane;fontStyle=1;align=center;verticalAlign=top;childLayout=stackLayout;horizontal=1;startSize=26;horizontalStack=0;resizeParent=1;resizeParentMax=0;resizeLast=0;collapsible=1;marginBottom=0;whiteSpace=wrap;html=1;" vertex="1" parent="1">
          <mxGeometry x="70" y="118" width="190" height="120" as="geometry" />
        </mxCell>
        <mxCell id="Q5F3aWCLFh04xkU88DtE-17" value="+ Ferramentas[] ferramentas" style="text;strokeColor=none;fillColor=none;align=left;verticalAlign=top;spacingLeft=4;spacingRight=4;overflow=hidden;rotatable=0;points=[[0,0.5],[1,0.5]];portConstraint=eastwest;whiteSpace=wrap;html=1;" vertex="1" parent="Q5F3aWCLFh04xkU88DtE-16">
          <mxGeometry y="26" width="190" height="24" as="geometry" />
        </mxCell>
        <mxCell id="Q5F3aWCLFh04xkU88DtE-18" value="" style="line;strokeWidth=1;fillColor=none;align=left;verticalAlign=middle;spacingTop=-1;spacingLeft=3;spacingRight=3;rotatable=0;labelPosition=right;points=[];portConstraint=eastwest;strokeColor=inherit;" vertex="1" parent="Q5F3aWCLFh04xkU88DtE-16">
          <mxGeometry y="50" width="190" height="8" as="geometry" />
        </mxCell>
        <mxCell id="Q5F3aWCLFh04xkU88DtE-19" value="+ Ferramenta[] Listar()&lt;div&gt;+ usa(ferramenta: Ferramenta)&lt;/div&gt;" style="text;strokeColor=none;fillColor=none;align=left;verticalAlign=top;spacingLeft=4;spacingRight=4;overflow=hidden;rotatable=0;points=[[0,0.5],[1,0.5]];portConstraint=eastwest;whiteSpace=wrap;html=1;" vertex="1" parent="Q5F3aWCLFh04xkU88DtE-16">
          <mxGeometry y="58" width="190" height="62" as="geometry" />
        </mxCell>
        <mxCell id="Q5F3aWCLFh04xkU88DtE-20" value="" style="endArrow=classic;html=1;rounded=0;exitX=0.008;exitY=0.268;exitDx=0;exitDy=0;exitPerimeter=0;entryX=0.999;entryY=0.006;entryDx=0;entryDy=0;entryPerimeter=0;" edge="1" parent="1" source="Q5F3aWCLFh04xkU88DtE-4" target="Q5F3aWCLFh04xkU88DtE-17">
          <mxGeometry width="50" height="50" relative="1" as="geometry">
            <mxPoint x="170" y="90" as="sourcePoint" />
            <mxPoint x="220" y="40" as="targetPoint" />
          </mxGeometry>
        </mxCell>
        <mxCell id="Q5F3aWCLFh04xkU88DtE-21" value="FERRAMENTA" style="swimlane;fontStyle=1;align=center;verticalAlign=top;childLayout=stackLayout;horizontal=1;startSize=26;horizontalStack=0;resizeParent=1;resizeParentMax=0;resizeLast=0;collapsible=1;marginBottom=0;whiteSpace=wrap;html=1;" vertex="1" parent="1">
          <mxGeometry x="85" y="300" width="160" height="86" as="geometry" />
        </mxCell>
        <mxCell id="Q5F3aWCLFh04xkU88DtE-22" value="+ String: nome" style="text;strokeColor=none;fillColor=none;align=left;verticalAlign=top;spacingLeft=4;spacingRight=4;overflow=hidden;rotatable=0;points=[[0,0.5],[1,0.5]];portConstraint=eastwest;whiteSpace=wrap;html=1;" vertex="1" parent="Q5F3aWCLFh04xkU88DtE-21">
          <mxGeometry y="26" width="160" height="26" as="geometry" />
        </mxCell>
        <mxCell id="Q5F3aWCLFh04xkU88DtE-23" value="" style="line;strokeWidth=1;fillColor=none;align=left;verticalAlign=middle;spacingTop=-1;spacingLeft=3;spacingRight=3;rotatable=0;labelPosition=right;points=[];portConstraint=eastwest;strokeColor=inherit;" vertex="1" parent="Q5F3aWCLFh04xkU88DtE-21">
          <mxGeometry y="52" width="160" height="8" as="geometry" />
        </mxCell>
        <mxCell id="Q5F3aWCLFh04xkU88DtE-24" value="+ void usar()" style="text;strokeColor=none;fillColor=none;align=left;verticalAlign=top;spacingLeft=4;spacingRight=4;overflow=hidden;rotatable=0;points=[[0,0.5],[1,0.5]];portConstraint=eastwest;whiteSpace=wrap;html=1;" vertex="1" parent="Q5F3aWCLFh04xkU88DtE-21">
          <mxGeometry y="60" width="160" height="26" as="geometry" />
        </mxCell>
        <mxCell id="Q5F3aWCLFh04xkU88DtE-25" value="" style="endArrow=classic;html=1;rounded=0;exitX=0.464;exitY=0.979;exitDx=0;exitDy=0;exitPerimeter=0;" edge="1" parent="1" source="Q5F3aWCLFh04xkU88DtE-19">
          <mxGeometry width="50" height="50" relative="1" as="geometry">
            <mxPoint x="150" y="290" as="sourcePoint" />
            <mxPoint x="159" y="300" as="targetPoint" />
          </mxGeometry>
        </mxCell>
        <mxCell id="Q5F3aWCLFh04xkU88DtE-26" value="" style="endArrow=classic;html=1;rounded=0;exitX=0.004;exitY=1.002;exitDx=0;exitDy=0;exitPerimeter=0;entryX=0.857;entryY=-0.038;entryDx=0;entryDy=0;entryPerimeter=0;" edge="1" parent="1" source="Q5F3aWCLFh04xkU88DtE-5" target="Q5F3aWCLFh04xkU88DtE-21">
          <mxGeometry width="50" height="50" relative="1" as="geometry">
            <mxPoint x="250" y="300" as="sourcePoint" />
            <mxPoint x="300" y="250" as="targetPoint" />
          </mxGeometry>
        </mxCell>
        <mxCell id="Q5F3aWCLFh04xkU88DtE-27" value="JOGO" style="html=1;whiteSpace=wrap;" vertex="1" parent="1">
          <mxGeometry x="570" y="140" width="110" height="50" as="geometry" />
        </mxCell>
        <mxCell id="Q5F3aWCLFh04xkU88DtE-28" value="" style="endArrow=classic;html=1;rounded=0;exitX=0;exitY=0;exitDx=0;exitDy=0;entryX=0.983;entryY=0.625;entryDx=0;entryDy=0;entryPerimeter=0;" edge="1" parent="1" source="Q5F3aWCLFh04xkU88DtE-27" target="Q5F3aWCLFh04xkU88DtE-4">
          <mxGeometry width="50" height="50" relative="1" as="geometry">
            <mxPoint x="550" y="130" as="sourcePoint" />
            <mxPoint x="600" y="80" as="targetPoint" />
          </mxGeometry>
        </mxCell>
        <mxCell id="Q5F3aWCLFh04xkU88DtE-33" value="OBJETO" style="swimlane;fontStyle=1;align=center;verticalAlign=top;childLayout=stackLayout;horizontal=1;startSize=26;horizontalStack=0;resizeParent=1;resizeParentMax=0;resizeLast=0;collapsible=1;marginBottom=0;whiteSpace=wrap;html=1;" vertex="1" parent="1">
          <mxGeometry x="324" y="450" width="180" height="170" as="geometry" />
        </mxCell>
        <mxCell id="Q5F3aWCLFh04xkU88DtE-34" value="+ String: nome&lt;div&gt;+ String: descricaoAntesAcao&lt;br&gt;+ String: descricaoDepoisAcao&lt;/div&gt;&lt;div&gt;+ Boolean: acaoOk&lt;/div&gt;" style="text;strokeColor=none;fillColor=none;align=left;verticalAlign=top;spacingLeft=4;spacingRight=4;overflow=hidden;rotatable=0;points=[[0,0.5],[1,0.5]];portConstraint=eastwest;whiteSpace=wrap;html=1;" vertex="1" parent="Q5F3aWCLFh04xkU88DtE-33">
          <mxGeometry y="26" width="180" height="74" as="geometry" />
        </mxCell>
        <mxCell id="Q5F3aWCLFh04xkU88DtE-35" value="" style="line;strokeWidth=1;fillColor=none;align=left;verticalAlign=middle;spacingTop=-1;spacingLeft=3;spacingRight=3;rotatable=0;labelPosition=right;points=[];portConstraint=eastwest;strokeColor=inherit;" vertex="1" parent="Q5F3aWCLFh04xkU88DtE-33">
          <mxGeometry y="100" width="180" height="8" as="geometry" />
        </mxCell>
        <mxCell id="Q5F3aWCLFh04xkU88DtE-36" value="+ String descricao()&lt;div&gt;+ void usar()&lt;/div&gt;" style="text;strokeColor=none;fillColor=none;align=left;verticalAlign=top;spacingLeft=4;spacingRight=4;overflow=hidden;rotatable=0;points=[[0,0.5],[1,0.5]];portConstraint=eastwest;whiteSpace=wrap;html=1;" vertex="1" parent="Q5F3aWCLFh04xkU88DtE-33">
          <mxGeometry y="108" width="180" height="62" as="geometry" />
        </mxCell>
        <mxCell id="Q5F3aWCLFh04xkU88DtE-37" value="" style="endArrow=classic;html=1;rounded=0;exitX=0.483;exitY=1.021;exitDx=0;exitDy=0;exitPerimeter=0;entryX=0.482;entryY=-0.004;entryDx=0;entryDy=0;entryPerimeter=0;" edge="1" parent="1" source="Q5F3aWCLFh04xkU88DtE-9" target="Q5F3aWCLFh04xkU88DtE-33">
          <mxGeometry width="50" height="50" relative="1" as="geometry">
            <mxPoint x="270" y="480" as="sourcePoint" />
            <mxPoint x="320" y="430" as="targetPoint" />
          </mxGeometry>
        </mxCell>
        <mxCell id="Q5F3aWCLFh04xkU88DtE-38" value="CHAVE ENFERRUJADA" style="swimlane;fontStyle=1;align=center;verticalAlign=top;childLayout=stackLayout;horizontal=1;startSize=26;horizontalStack=0;resizeParent=1;resizeParentMax=0;resizeLast=0;collapsible=1;marginBottom=0;whiteSpace=wrap;html=1;" vertex="1" parent="1">
          <mxGeometry x="90" y="520" width="150" height="110" as="geometry">
            <mxRectangle x="10" y="530" width="170" height="30" as="alternateBounds" />
          </mxGeometry>
        </mxCell>
        <mxCell id="Q5F3aWCLFh04xkU88DtE-39" value="- Boolean: #visivel" style="text;strokeColor=none;fillColor=none;align=left;verticalAlign=top;spacingLeft=4;spacingRight=4;overflow=hidden;rotatable=0;points=[[0,0.5],[1,0.5]];portConstraint=eastwest;whiteSpace=wrap;html=1;" vertex="1" parent="Q5F3aWCLFh04xkU88DtE-38">
          <mxGeometry y="26" width="150" height="26" as="geometry" />
        </mxCell>
        <mxCell id="Q5F3aWCLFh04xkU88DtE-40" value="" style="line;strokeWidth=1;fillColor=none;align=left;verticalAlign=middle;spacingTop=-1;spacingLeft=3;spacingRight=3;rotatable=0;labelPosition=right;points=[];portConstraint=eastwest;strokeColor=inherit;" vertex="1" parent="Q5F3aWCLFh04xkU88DtE-38">
          <mxGeometry y="52" width="150" height="8" as="geometry" />
        </mxCell>
        <mxCell id="Q5F3aWCLFh04xkU88DtE-41" value="+ Boolean get visivel()&lt;div&gt;+ void set visivel()&lt;/div&gt;" style="text;strokeColor=none;fillColor=none;align=left;verticalAlign=top;spacingLeft=4;spacingRight=4;overflow=hidden;rotatable=0;points=[[0,0.5],[1,0.5]];portConstraint=eastwest;whiteSpace=wrap;html=1;" vertex="1" parent="Q5F3aWCLFh04xkU88DtE-38">
          <mxGeometry y="60" width="150" height="50" as="geometry" />
        </mxCell>
        <mxCell id="Q5F3aWCLFh04xkU88DtE-42" value="CHAVE DE FENDA" style="html=1;whiteSpace=wrap;" vertex="1" parent="1">
          <mxGeometry x="20" y="430" width="110" height="50" as="geometry" />
        </mxCell>
        <mxCell id="Q5F3aWCLFh04xkU88DtE-43" value="MARTELO" style="html=1;whiteSpace=wrap;" vertex="1" parent="1">
          <mxGeometry x="190" y="430" width="110" height="50" as="geometry" />
        </mxCell>
        <mxCell id="Q5F3aWCLFh04xkU88DtE-44" value="" style="endArrow=classic;html=1;rounded=0;exitX=0.466;exitY=-0.026;exitDx=0;exitDy=0;exitPerimeter=0;entryX=0.068;entryY=0.951;entryDx=0;entryDy=0;entryPerimeter=0;" edge="1" parent="1" source="Q5F3aWCLFh04xkU88DtE-42" target="Q5F3aWCLFh04xkU88DtE-24">
          <mxGeometry width="50" height="50" relative="1" as="geometry">
            <mxPoint x="110" y="580" as="sourcePoint" />
            <mxPoint x="160" y="530" as="targetPoint" />
          </mxGeometry>
        </mxCell>
        <mxCell id="Q5F3aWCLFh04xkU88DtE-45" value="" style="endArrow=classic;html=1;rounded=0;exitX=0.464;exitY=0.043;exitDx=0;exitDy=0;exitPerimeter=0;entryX=0.796;entryY=0.995;entryDx=0;entryDy=0;entryPerimeter=0;" edge="1" parent="1" source="Q5F3aWCLFh04xkU88DtE-43" target="Q5F3aWCLFh04xkU88DtE-24">
          <mxGeometry width="50" height="50" relative="1" as="geometry">
            <mxPoint x="120" y="560" as="sourcePoint" />
            <mxPoint x="170" y="510" as="targetPoint" />
          </mxGeometry>
        </mxCell>
        <mxCell id="Q5F3aWCLFh04xkU88DtE-46" value="" style="endArrow=classic;html=1;rounded=0;exitX=0.485;exitY=-0.03;exitDx=0;exitDy=0;exitPerimeter=0;entryX=0.475;entryY=1.038;entryDx=0;entryDy=0;entryPerimeter=0;" edge="1" parent="1" source="Q5F3aWCLFh04xkU88DtE-38" target="Q5F3aWCLFh04xkU88DtE-24">
          <mxGeometry width="50" height="50" relative="1" as="geometry">
            <mxPoint x="20" y="610" as="sourcePoint" />
            <mxPoint x="70" y="560" as="targetPoint" />
          </mxGeometry>
        </mxCell>
        <mxCell id="Q5F3aWCLFh04xkU88DtE-47" value="ARMARIO" style="html=1;whiteSpace=wrap;" vertex="1" parent="1">
          <mxGeometry x="214" y="700" width="110" height="50" as="geometry" />
        </mxCell>
        <mxCell id="Q5F3aWCLFh04xkU88DtE-48" value="BILHETE DO QUARTO" style="html=1;whiteSpace=wrap;" vertex="1" parent="1">
          <mxGeometry x="384" y="700" width="110" height="50" as="geometry" />
        </mxCell>
        <mxCell id="Q5F3aWCLFh04xkU88DtE-49" value="CAIXA DE MADEIRA" style="html=1;whiteSpace=wrap;" vertex="1" parent="1">
          <mxGeometry x="550" y="700" width="110" height="50" as="geometry" />
        </mxCell>
        <mxCell id="Q5F3aWCLFh04xkU88DtE-52" value="&lt;font style=&quot;font-size: 11px;&quot;&gt;BILHETE CAIXA MADEIRA&lt;/font&gt;" style="swimlane;fontStyle=1;align=center;verticalAlign=top;childLayout=stackLayout;horizontal=1;startSize=26;horizontalStack=0;resizeParent=1;resizeParentMax=0;resizeLast=0;collapsible=1;marginBottom=0;whiteSpace=wrap;html=1;" vertex="1" parent="1">
          <mxGeometry x="250" y="790" width="150" height="110" as="geometry">
            <mxRectangle x="10" y="530" width="170" height="30" as="alternateBounds" />
          </mxGeometry>
        </mxCell>
        <mxCell id="Q5F3aWCLFh04xkU88DtE-53" value="- Boolean: #visivel" style="text;strokeColor=none;fillColor=none;align=left;verticalAlign=top;spacingLeft=4;spacingRight=4;overflow=hidden;rotatable=0;points=[[0,0.5],[1,0.5]];portConstraint=eastwest;whiteSpace=wrap;html=1;" vertex="1" parent="Q5F3aWCLFh04xkU88DtE-52">
          <mxGeometry y="26" width="150" height="26" as="geometry" />
        </mxCell>
        <mxCell id="Q5F3aWCLFh04xkU88DtE-54" value="" style="line;strokeWidth=1;fillColor=none;align=left;verticalAlign=middle;spacingTop=-1;spacingLeft=3;spacingRight=3;rotatable=0;labelPosition=right;points=[];portConstraint=eastwest;strokeColor=inherit;" vertex="1" parent="Q5F3aWCLFh04xkU88DtE-52">
          <mxGeometry y="52" width="150" height="8" as="geometry" />
        </mxCell>
        <mxCell id="Q5F3aWCLFh04xkU88DtE-55" value="+ Boolean get visivel()&lt;div&gt;+ void set visivel()&lt;/div&gt;" style="text;strokeColor=none;fillColor=none;align=left;verticalAlign=top;spacingLeft=4;spacingRight=4;overflow=hidden;rotatable=0;points=[[0,0.5],[1,0.5]];portConstraint=eastwest;whiteSpace=wrap;html=1;" vertex="1" parent="Q5F3aWCLFh04xkU88DtE-52">
          <mxGeometry y="60" width="150" height="50" as="geometry" />
        </mxCell>
        <mxCell id="Q5F3aWCLFh04xkU88DtE-56" value="CAIXA DE PLASTICO" style="swimlane;fontStyle=1;align=center;verticalAlign=top;childLayout=stackLayout;horizontal=1;startSize=26;horizontalStack=0;resizeParent=1;resizeParentMax=0;resizeLast=0;collapsible=1;marginBottom=0;whiteSpace=wrap;html=1;" vertex="1" parent="1">
          <mxGeometry x="420" y="790" width="150" height="110" as="geometry">
            <mxRectangle x="10" y="530" width="170" height="30" as="alternateBounds" />
          </mxGeometry>
        </mxCell>
        <mxCell id="Q5F3aWCLFh04xkU88DtE-57" value="- Boolean: #visivel" style="text;strokeColor=none;fillColor=none;align=left;verticalAlign=top;spacingLeft=4;spacingRight=4;overflow=hidden;rotatable=0;points=[[0,0.5],[1,0.5]];portConstraint=eastwest;whiteSpace=wrap;html=1;" vertex="1" parent="Q5F3aWCLFh04xkU88DtE-56">
          <mxGeometry y="26" width="150" height="26" as="geometry" />
        </mxCell>
        <mxCell id="Q5F3aWCLFh04xkU88DtE-58" value="" style="line;strokeWidth=1;fillColor=none;align=left;verticalAlign=middle;spacingTop=-1;spacingLeft=3;spacingRight=3;rotatable=0;labelPosition=right;points=[];portConstraint=eastwest;strokeColor=inherit;" vertex="1" parent="Q5F3aWCLFh04xkU88DtE-56">
          <mxGeometry y="52" width="150" height="8" as="geometry" />
        </mxCell>
        <mxCell id="Q5F3aWCLFh04xkU88DtE-59" value="+ Boolean get visivel()&lt;div&gt;+ void set visivel()&lt;/div&gt;" style="text;strokeColor=none;fillColor=none;align=left;verticalAlign=top;spacingLeft=4;spacingRight=4;overflow=hidden;rotatable=0;points=[[0,0.5],[1,0.5]];portConstraint=eastwest;whiteSpace=wrap;html=1;" vertex="1" parent="Q5F3aWCLFh04xkU88DtE-56">
          <mxGeometry y="60" width="150" height="50" as="geometry" />
        </mxCell>
        <mxCell id="Q5F3aWCLFh04xkU88DtE-60" value="" style="endArrow=classic;html=1;rounded=0;exitX=0.578;exitY=-0.004;exitDx=0;exitDy=0;exitPerimeter=0;entryX=0.224;entryY=1.065;entryDx=0;entryDy=0;entryPerimeter=0;" edge="1" parent="1" source="Q5F3aWCLFh04xkU88DtE-52" target="Q5F3aWCLFh04xkU88DtE-36">
          <mxGeometry width="50" height="50" relative="1" as="geometry">
            <mxPoint x="170" y="840" as="sourcePoint" />
            <mxPoint x="220" y="790" as="targetPoint" />
          </mxGeometry>
        </mxCell>
        <mxCell id="Q5F3aWCLFh04xkU88DtE-61" value="" style="endArrow=classic;html=1;rounded=0;exitX=0.649;exitY=-0.023;exitDx=0;exitDy=0;exitPerimeter=0;entryX=0.933;entryY=0.998;entryDx=0;entryDy=0;entryPerimeter=0;" edge="1" parent="1" source="Q5F3aWCLFh04xkU88DtE-56" target="Q5F3aWCLFh04xkU88DtE-36">
          <mxGeometry width="50" height="50" relative="1" as="geometry">
            <mxPoint x="520" y="670" as="sourcePoint" />
            <mxPoint x="547" y="504" as="targetPoint" />
          </mxGeometry>
        </mxCell>
        <mxCell id="Q5F3aWCLFh04xkU88DtE-62" value="" style="endArrow=classic;html=1;rounded=0;exitX=0.5;exitY=0;exitDx=0;exitDy=0;entryX=0.013;entryY=0.776;entryDx=0;entryDy=0;entryPerimeter=0;" edge="1" parent="1" source="Q5F3aWCLFh04xkU88DtE-47" target="Q5F3aWCLFh04xkU88DtE-36">
          <mxGeometry width="50" height="50" relative="1" as="geometry">
            <mxPoint x="120" y="700" as="sourcePoint" />
            <mxPoint x="147" y="534" as="targetPoint" />
          </mxGeometry>
        </mxCell>
        <mxCell id="Q5F3aWCLFh04xkU88DtE-63" value="" style="endArrow=classic;html=1;rounded=0;entryX=0.599;entryY=1.021;entryDx=0;entryDy=0;entryPerimeter=0;exitX=0.5;exitY=0;exitDx=0;exitDy=0;" edge="1" parent="1" source="Q5F3aWCLFh04xkU88DtE-48" target="Q5F3aWCLFh04xkU88DtE-36">
          <mxGeometry width="50" height="50" relative="1" as="geometry">
            <mxPoint x="450" y="690" as="sourcePoint" />
            <mxPoint x="697" y="424" as="targetPoint" />
          </mxGeometry>
        </mxCell>
        <mxCell id="Q5F3aWCLFh04xkU88DtE-64" value="" style="endArrow=classic;html=1;rounded=0;exitX=0.5;exitY=0;exitDx=0;exitDy=0;entryX=1;entryY=0.5;entryDx=0;entryDy=0;" edge="1" parent="1" source="Q5F3aWCLFh04xkU88DtE-49" target="Q5F3aWCLFh04xkU88DtE-36">
          <mxGeometry width="50" height="50" relative="1" as="geometry">
            <mxPoint x="650" y="840" as="sourcePoint" />
            <mxPoint x="677" y="674" as="targetPoint" />
          </mxGeometry>
        </mxCell>
        <mxCell id="Q5F3aWCLFh04xkU88DtE-65" value="QUARTO DOS PAIS" style="html=1;whiteSpace=wrap;" vertex="1" parent="1">
          <mxGeometry x="640" y="380" width="110" height="50" as="geometry" />
        </mxCell>
        <mxCell id="Q5F3aWCLFh04xkU88DtE-66" value="MEU QUARTO" style="html=1;whiteSpace=wrap;" vertex="1" parent="1">
          <mxGeometry x="680" y="238" width="110" height="50" as="geometry" />
        </mxCell>
        <mxCell id="Q5F3aWCLFh04xkU88DtE-67" value="SALA DE ESTAR" style="html=1;whiteSpace=wrap;" vertex="1" parent="1">
          <mxGeometry x="660" y="310" width="110" height="50" as="geometry" />
        </mxCell>
        <mxCell id="Q5F3aWCLFh04xkU88DtE-68" value="LAVANDERIA" style="html=1;whiteSpace=wrap;" vertex="1" parent="1">
          <mxGeometry x="620" y="450" width="110" height="50" as="geometry" />
        </mxCell>
        <mxCell id="Q5F3aWCLFh04xkU88DtE-69" value="" style="endArrow=classic;html=1;rounded=0;exitX=0;exitY=0.5;exitDx=0;exitDy=0;entryX=0.992;entryY=0.954;entryDx=0;entryDy=0;entryPerimeter=0;" edge="1" parent="1" source="Q5F3aWCLFh04xkU88DtE-68" target="Q5F3aWCLFh04xkU88DtE-9">
          <mxGeometry width="50" height="50" relative="1" as="geometry">
            <mxPoint x="640" y="610" as="sourcePoint" />
            <mxPoint x="690" y="560" as="targetPoint" />
          </mxGeometry>
        </mxCell>
        <mxCell id="Q5F3aWCLFh04xkU88DtE-70" value="" style="endArrow=classic;html=1;rounded=0;exitX=0.017;exitY=0.627;exitDx=0;exitDy=0;exitPerimeter=0;" edge="1" parent="1" source="Q5F3aWCLFh04xkU88DtE-65" target="Q5F3aWCLFh04xkU88DtE-9">
          <mxGeometry width="50" height="50" relative="1" as="geometry">
            <mxPoint x="670" y="570" as="sourcePoint" />
            <mxPoint x="720" y="520" as="targetPoint" />
          </mxGeometry>
        </mxCell>
        <mxCell id="Q5F3aWCLFh04xkU88DtE-71" value="" style="endArrow=classic;html=1;rounded=0;exitX=0;exitY=0.5;exitDx=0;exitDy=0;entryX=1.007;entryY=0.034;entryDx=0;entryDy=0;entryPerimeter=0;" edge="1" parent="1" source="Q5F3aWCLFh04xkU88DtE-66" target="Q5F3aWCLFh04xkU88DtE-7">
          <mxGeometry width="50" height="50" relative="1" as="geometry">
            <mxPoint x="550" y="290" as="sourcePoint" />
            <mxPoint x="600" y="240" as="targetPoint" />
          </mxGeometry>
        </mxCell>
        <mxCell id="Q5F3aWCLFh04xkU88DtE-72" value="" style="endArrow=classic;html=1;rounded=0;exitX=0;exitY=0.5;exitDx=0;exitDy=0;entryX=1.007;entryY=0.758;entryDx=0;entryDy=0;entryPerimeter=0;" edge="1" parent="1" source="Q5F3aWCLFh04xkU88DtE-67" target="Q5F3aWCLFh04xkU88DtE-7">
          <mxGeometry width="50" height="50" relative="1" as="geometry">
            <mxPoint x="550" y="300" as="sourcePoint" />
            <mxPoint x="600" y="250" as="targetPoint" />
          </mxGeometry>
        </mxCell>
      </root>
    </mxGraphModel>
  </diagram>
</mxfile>
